# xmcd CD database file
# Copyright (C) 1997 Ti Kan
# 
# Track frame offsets:
#     150
#     17642
#     32212
#     62000
#     89667
#     110805
#     129005
#     141787
#     162622
#     178750
# 
# Disc length: 2707 seconds
# 
# Revision: 1
# Processed by: cddbd v1.4b41PL1 Copyright (c) Steve Scherf et al.
# Submitted via: DiscPlay 4.0.4
# 
DISCID=8b0a910a
DTITLE=Homesick James - Juanita
DYEAR=1900
DGENRE=
TTITLE0=Juanita
TTITLE1=My Baby
TTITLE2=Time Is Growin' Near
TTITLE3=Lonesome Ol' Train
TTITLE4=Someday Baby
TTITLE5=Drivin' Dog
TTITLE6=Careless Love
TTITLE7=The Right Life
TTITLE8=I Can't Hold Out
TTITLE9=Stop That Thing
EXTD=
EXTT0=
EXTT1=
EXTT2=
EXTT3=
EXTT4=
EXTT5=
EXTT6=
EXTT7=
EXTT8=
EXTT9=
PLAYORDER=
